<svg xmlns="http://www.w3.org/2000/svg" xmlns:xlink="http://www.w3.org/1999/xlink" width="900" height="540" viewBox="0 0 300 180" role="img" aria-label="Altium schematic sheet" class="altium-sheet" data-renderer="altiumts">
  <title>Altium schematic sheet</title>
  <rect width="100%" height="100%" fill="#ffffff"/>
  <g stroke-linecap="round" stroke-linejoin="round">
    <defs><clipPath id="altium-sheet-paper"><rect x="0" y="0" width="300" height="180"/></clipPath></defs>
    <g data-sheet-content="true" clip-path="url(#altium-sheet-paper)">
    <g data-record="17"><g transform="translate(45 130) rotate(0)"><line data-record="13" vector-effect="non-scaling-stroke" x1="0" y1="0" x2="10" y2="0" stroke="#880000" stroke-width="1"/><line data-record="13" vector-effect="non-scaling-stroke" x1="10" y1="5" x2="10" y2="-5" stroke="#880000" stroke-width="1"/></g><text x="57" y="130" text-anchor="start" dominant-baseline="central" fill="#880000" font-family="Arial" font-size="4" font-style="normal" font-weight="normal" text-decoration="none">VDD</text></g>
    <polyline data-record="27" vector-effect="non-scaling-stroke" points="45,130 37,130" fill="none" stroke="#008000" stroke-width="1"/>
    <g data-record="17"><g transform="translate(45 50) rotate(0)"><line data-record="13" vector-effect="non-scaling-stroke" x1="0" y1="0" x2="4" y2="0" stroke="#880000" stroke-width="1"/><line data-record="13" vector-effect="non-scaling-stroke" x1="4" y1="7" x2="4" y2="-7" stroke="#880000" stroke-width="1"/><line data-record="13" vector-effect="non-scaling-stroke" x1="8" y1="4" x2="8" y2="-4" stroke="#880000" stroke-width="1"/><line data-record="13" vector-effect="non-scaling-stroke" x1="12" y1="2" x2="12" y2="-2" stroke="#880000" stroke-width="1"/></g><text x="61" y="50" text-anchor="start" dominant-baseline="central" fill="#880000" font-family="Arial" font-size="4" font-style="normal" font-weight="normal" text-decoration="none">GND</text></g>
    <polyline data-record="27" vector-effect="non-scaling-stroke" points="45,50 37,50" fill="none" stroke="#008000" stroke-width="1"/>
    <g data-record="17"><g transform="translate(115 130) rotate(-90)"><line data-record="13" vector-effect="non-scaling-stroke" x1="0" y1="0" x2="10" y2="0" stroke="#880000" stroke-width="1"/><line data-record="13" vector-effect="non-scaling-stroke" x1="10" y1="5" x2="10" y2="-5" stroke="#880000" stroke-width="1"/></g><text x="115" y="118" text-anchor="middle" dominant-baseline="auto" fill="#880000" font-family="Arial" font-size="4" font-style="normal" font-weight="normal" text-decoration="none">VDD</text></g>
    <polyline data-record="27" vector-effect="non-scaling-stroke" points="115,130 107,130" fill="none" stroke="#008000" stroke-width="1"/>
    <g data-record="17"><g transform="translate(115 50) rotate(-90)"><line data-record="13" vector-effect="non-scaling-stroke" x1="0" y1="0" x2="4" y2="0" stroke="#880000" stroke-width="1"/><line data-record="13" vector-effect="non-scaling-stroke" x1="4" y1="7" x2="4" y2="-7" stroke="#880000" stroke-width="1"/><line data-record="13" vector-effect="non-scaling-stroke" x1="8" y1="4" x2="8" y2="-4" stroke="#880000" stroke-width="1"/><line data-record="13" vector-effect="non-scaling-stroke" x1="12" y1="2" x2="12" y2="-2" stroke="#880000" stroke-width="1"/></g><text x="115" y="34" text-anchor="middle" dominant-baseline="auto" fill="#880000" font-family="Arial" font-size="4" font-style="normal" font-weight="normal" text-decoration="none">GND</text></g>
    <polyline data-record="27" vector-effect="non-scaling-stroke" points="115,50 107,50" fill="none" stroke="#008000" stroke-width="1"/>
    <g data-record="17"><g transform="translate(185 130) rotate(-180)"><line data-record="13" vector-effect="non-scaling-stroke" x1="0" y1="0" x2="10" y2="0" stroke="#880000" stroke-width="1"/><line data-record="13" vector-effect="non-scaling-stroke" x1="10" y1="5" x2="10" y2="-5" stroke="#880000" stroke-width="1"/></g><text x="173" y="130" text-anchor="end" dominant-baseline="central" fill="#880000" font-family="Arial" font-size="4" font-style="normal" font-weight="normal" text-decoration="none">VDD</text></g>
    <polyline data-record="27" vector-effect="non-scaling-stroke" points="185,130 177,130" fill="none" stroke="#008000" stroke-width="1"/>
    <g data-record="17"><g transform="translate(185 50) rotate(-180)"><line data-record="13" vector-effect="non-scaling-stroke" x1="0" y1="0" x2="4" y2="0" stroke="#880000" stroke-width="1"/><line data-record="13" vector-effect="non-scaling-stroke" x1="4" y1="7" x2="4" y2="-7" stroke="#880000" stroke-width="1"/><line data-record="13" vector-effect="non-scaling-stroke" x1="8" y1="4" x2="8" y2="-4" stroke="#880000" stroke-width="1"/><line data-record="13" vector-effect="non-scaling-stroke" x1="12" y1="2" x2="12" y2="-2" stroke="#880000" stroke-width="1"/></g><text x="169" y="50" text-anchor="end" dominant-baseline="central" fill="#880000" font-family="Arial" font-size="4" font-style="normal" font-weight="normal" text-decoration="none">GND</text></g>
    <polyline data-record="27" vector-effect="non-scaling-stroke" points="185,50 177,50" fill="none" stroke="#008000" stroke-width="1"/>
    <g data-record="17"><g transform="translate(255 130) rotate(-270)"><line data-record="13" vector-effect="non-scaling-stroke" x1="0" y1="0" x2="10" y2="0" stroke="#880000" stroke-width="1"/><line data-record="13" vector-effect="non-scaling-stroke" x1="10" y1="5" x2="10" y2="-5" stroke="#880000" stroke-width="1"/></g><text x="255" y="142" text-anchor="middle" dominant-baseline="hanging" fill="#880000" font-family="Arial" font-size="4" font-style="normal" font-weight="normal" text-decoration="none">VDD</text></g>
    <polyline data-record="27" vector-effect="non-scaling-stroke" points="255,130 247,130" fill="none" stroke="#008000" stroke-width="1"/>
    <g data-record="17"><g transform="translate(255 50) rotate(-270)"><line data-record="13" vector-effect="non-scaling-stroke" x1="0" y1="0" x2="4" y2="0" stroke="#880000" stroke-width="1"/><line data-record="13" vector-effect="non-scaling-stroke" x1="4" y1="7" x2="4" y2="-7" stroke="#880000" stroke-width="1"/><line data-record="13" vector-effect="non-scaling-stroke" x1="8" y1="4" x2="8" y2="-4" stroke="#880000" stroke-width="1"/><line data-record="13" vector-effect="non-scaling-stroke" x1="12" y1="2" x2="12" y2="-2" stroke="#880000" stroke-width="1"/></g><text x="255" y="66" text-anchor="middle" dominant-baseline="hanging" fill="#880000" font-family="Arial" font-size="4" font-style="normal" font-weight="normal" text-decoration="none">GND</text></g>
    <polyline data-record="27" vector-effect="non-scaling-stroke" points="255,50 247,50" fill="none" stroke="#008000" stroke-width="1"/>
    </g>
  </g>
</svg>