<svg xmlns="http://www.w3.org/2000/svg" xmlns:xlink="http://www.w3.org/1999/xlink" width="1000" height="769" viewBox="0 0 2161.4 1661.4" role="img" aria-label="TI TMDS62LEVM Rev. B schematic sheet 30" class="altium-sheet" data-renderer="altiumts">
  <title>TI TMDS62LEVM Rev. B schematic sheet 30</title>
  <rect width="100%" height="100%" fill="#fffcf8"/>
  <g stroke-linecap="round" stroke-linejoin="round">
    <defs><clipPath id="altium-sheet-paper"><rect x="70.7" y="70.7" width="2020" height="1520"/></clipPath></defs>
    <g data-record="SheetBorder" fill="#fffef8" stroke="#334155" stroke-width="1"><rect x="70.7" y="70.7" width="2020" height="1520"/><rect x="80.7" y="80.7" width="2000" height="1500" fill="none"/><path d="M 414.0333 70.7 V 80.7 M 414.0333 1580.7 V 1590.7"/><path d="M 747.3667 70.7 V 80.7 M 747.3667 1580.7 V 1590.7"/><path d="M 1080.7 70.7 V 80.7 M 1080.7 1580.7 V 1590.7"/><path d="M 1414.0333 70.7 V 80.7 M 1414.0333 1580.7 V 1590.7"/><path d="M 1747.3667 70.7 V 80.7 M 1747.3667 1580.7 V 1590.7"/><path d="M 70.7 455.7 H 80.7 M 2080.7 455.7 H 2090.7"/><path d="M 70.7 830.7 H 80.7 M 2080.7 830.7 H 2090.7"/><path d="M 70.7 1205.7 H 80.7 M 2080.7 1205.7 H 2090.7"/></g>
    <g data-sheet-content="true" clip-path="url(#altium-sheet-paper)">
    <text data-record="25" x="0" y="0" fill="#ff0000" font-family="Arial" font-size="7" font-style="normal" font-weight="normal" text-decoration="none" text-anchor="start" dominant-baseline="text-after-edge" transform="translate(1540.7 560.7) rotate(0)">DSI0_TXRCALIB</text>
    <polyline data-record="27" points="1660.7,560.7 1510.7,560.7" fill="none" stroke="#800040" stroke-width="1"/>
    <polyline data-record="27" points="1710.7,580.7 1510.7,580.7" fill="none" stroke="#800040" stroke-width="1"/>
    <polyline data-record="27" points="1710.7,590.7 1510.7,590.7" fill="none" stroke="#800040" stroke-width="1"/>
    <polyline data-record="27" points="1710.7,610.7 1510.7,610.7" fill="none" stroke="#800040" stroke-width="1"/>
    <polyline data-record="27" points="1710.7,620.7 1510.7,620.7" fill="none" stroke="#800040" stroke-width="1"/>
    <polyline data-record="27" points="1710.7,640.7 1510.7,640.7" fill="none" stroke="#800040" stroke-width="1"/>
    <polyline data-record="27" points="1710.7,650.7 1510.7,650.7" fill="none" stroke="#800040" stroke-width="1"/>
    <polyline data-record="27" points="1710.7,670.7 1510.7,670.7" fill="none" stroke="#800040" stroke-width="1"/>
    <polyline data-record="27" points="1710.7,680.7 1510.7,680.7" fill="none" stroke="#800040" stroke-width="1"/>
    <polyline data-record="27" points="1710.7,700.7 1510.7,700.7" fill="none" stroke="#800040" stroke-width="1"/>
    <polyline data-record="27" points="1710.7,710.7 1510.7,710.7" fill="none" stroke="#800040" stroke-width="1"/>
    <polyline data-record="27" points="780.7,560.7 550.7,560.7" fill="none" stroke="#800040" stroke-width="1"/>
    <polyline data-record="27" points="780.7,570.7 550.7,570.7" fill="none" stroke="#800040" stroke-width="1"/>
    <polyline data-record="27" points="670.7,590.7 550.7,590.7" fill="none" stroke="#800040" stroke-width="1"/>
    <text data-record="25" x="0" y="0" fill="#ff0000" font-family="Arial" font-size="7" font-style="normal" font-weight="normal" text-decoration="none" text-anchor="start" dominant-baseline="text-after-edge" transform="translate(580.7 610.7) rotate(0)">SoC_USB0_RCALIB</text>
    <polyline data-record="27" points="760.7,610.7 550.7,610.7" fill="none" stroke="#800040" stroke-width="1"/>
    <polyline data-record="27" points="790.7,630.7 550.7,630.7" fill="none" stroke="#800040" stroke-width="1"/>
    <polyline data-record="27" points="790.7,640.7 550.7,640.7" fill="none" stroke="#800040" stroke-width="1"/>
    <polyline data-record="27" points="670.7,660.7 550.7,660.7" fill="none" stroke="#800040" stroke-width="1"/>
    <text data-record="25" x="0" y="0" fill="#ff0000" font-family="Arial" font-size="7" font-style="normal" font-weight="normal" text-decoration="none" text-anchor="start" dominant-baseline="text-after-edge" transform="translate(580.7 680.7) rotate(0)">SoC_USB1_RCALIB</text>
    <polyline data-record="27" points="760.7,680.7 550.7,680.7" fill="none" stroke="#800040" stroke-width="1"/>
    <polyline data-record="27" points="770.7,700.7 550.7,700.7" fill="none" stroke="#800040" stroke-width="1"/>
    <polyline data-record="27" points="570.7,710.7 550.7,710.7" fill="none" stroke="#800040" stroke-width="1"/>
    <polyline data-record="27" points="770.7,710.7 620.7,710.7" fill="none" stroke="#800040" stroke-width="1"/>
    <g data-record="2"><line x1="770.7" y1="680.7" x2="760.7" y2="680.7" stroke="#1f2937" stroke-width="1"/></g>
    <g data-record="2"><line x1="800.7" y1="680.7" x2="810.7" y2="680.7" stroke="#1f2937" stroke-width="1"/></g>
    <line data-record="13" x1="770.7" y1="680.7" x2="773.7" y2="677.7" stroke="#000bff" stroke-width="1"/>
    <line data-record="13" x1="773.7" y1="677.7" x2="779.7" y2="683.7" stroke="#000bff" stroke-width="1"/>
    <line data-record="13" x1="779.7" y1="683.7" x2="785.7" y2="677.7" stroke="#000bff" stroke-width="1"/>
    <line data-record="13" x1="785.7" y1="677.7" x2="791.7" y2="683.7" stroke="#000bff" stroke-width="1"/>
    <line data-record="13" x1="791.7" y1="683.7" x2="797.7" y2="677.7" stroke="#000bff" stroke-width="1"/>
    <line data-record="13" x1="797.7" y1="677.7" x2="800.7" y2="680.7" stroke="#000bff" stroke-width="1"/>
    <text data-record="34" x="0" y="0" fill="#000080" font-family="Times New Roman" font-size="10" font-style="normal" font-weight="normal" text-decoration="none" text-anchor="start" dominant-baseline="text-after-edge" transform="translate(750.7 680.7) rotate(0)">R117</text>
    <text data-record="41" x="0" y="0" fill="#000080" font-family="Times New Roman" font-size="10" font-style="normal" font-weight="normal" text-decoration="none" text-anchor="start" dominant-baseline="text-after-edge" transform="translate(800.7 680.7) rotate(0)">499E_1%</text>
    <rect data-record="14" x="1380.7" y="550.7" width="100" height="170" rx="0" fill="#ffffb0" stroke="#000bff" stroke-width="1"/>
    <g data-record="2"><line x1="1480.7" y1="710.7" x2="1510.7" y2="710.7" stroke="#1f2937" stroke-width="1"/><text x="0" y="0" fill="#1f2937" font-family="Times New Roman" font-size="10" font-style="normal" font-weight="normal" text-decoration="none" text-anchor="start" dominant-baseline="text-after-edge" transform="translate(1482.7 710.7) rotate(0)">A14</text><text x="0" y="0" fill="#1f2937" font-family="Times New Roman" font-size="10" font-style="normal" font-weight="normal" text-decoration="none" text-anchor="end" dominant-baseline="central" transform="translate(1478.7 710.7) rotate(0)">DSI0_TXCLKP</text></g>
    <g data-record="2"><line x1="1480.7" y1="700.7" x2="1510.7" y2="700.7" stroke="#1f2937" stroke-width="1"/><text x="0" y="0" fill="#1f2937" font-family="Times New Roman" font-size="10" font-style="normal" font-weight="normal" text-decoration="none" text-anchor="start" dominant-baseline="text-after-edge" transform="translate(1482.7 700.7) rotate(0)">A15</text><text x="0" y="0" fill="#1f2937" font-family="Times New Roman" font-size="10" font-style="normal" font-weight="normal" text-decoration="none" text-anchor="end" dominant-baseline="central" transform="translate(1478.7 700.7) rotate(0)">DSI0_TXCLKN</text></g>
    <g data-record="2"><line x1="1480.7" y1="680.7" x2="1510.7" y2="680.7" stroke="#1f2937" stroke-width="1"/><text x="0" y="0" fill="#1f2937" font-family="Times New Roman" font-size="10" font-style="normal" font-weight="normal" text-decoration="none" text-anchor="start" dominant-baseline="text-after-edge" transform="translate(1482.7 680.7) rotate(0)">B18</text><text x="0" y="0" fill="#1f2937" font-family="Times New Roman" font-size="10" font-style="normal" font-weight="normal" text-decoration="none" text-anchor="end" dominant-baseline="central" transform="translate(1478.7 680.7) rotate(0)">DSI0_TXP0</text></g>
    <g data-record="2"><line x1="1480.7" y1="670.7" x2="1510.7" y2="670.7" stroke="#1f2937" stroke-width="1"/><text x="0" y="0" fill="#1f2937" font-family="Times New Roman" font-size="10" font-style="normal" font-weight="normal" text-decoration="none" text-anchor="start" dominant-baseline="text-after-edge" transform="translate(1482.7 670.7) rotate(0)">B19</text><text x="0" y="0" fill="#1f2937" font-family="Times New Roman" font-size="10" font-style="normal" font-weight="normal" text-decoration="none" text-anchor="end" dominant-baseline="central" transform="translate(1478.7 670.7) rotate(0)">DSI0_TXN0</text></g>
    <g data-record="2"><line x1="1480.7" y1="650.7" x2="1510.7" y2="650.7" stroke="#1f2937" stroke-width="1"/><text x="0" y="0" fill="#1f2937" font-family="Times New Roman" font-size="10" font-style="normal" font-weight="normal" text-decoration="none" text-anchor="start" dominant-baseline="text-after-edge" transform="translate(1482.7 650.7) rotate(0)">A17</text><text x="0" y="0" fill="#1f2937" font-family="Times New Roman" font-size="10" font-style="normal" font-weight="normal" text-decoration="none" text-anchor="end" dominant-baseline="central" transform="translate(1478.7 650.7) rotate(0)">DSI0_TXP1</text></g>
    <g data-record="2"><line x1="1480.7" y1="640.7" x2="1510.7" y2="640.7" stroke="#1f2937" stroke-width="1"/><text x="0" y="0" fill="#1f2937" font-family="Times New Roman" font-size="10" font-style="normal" font-weight="normal" text-decoration="none" text-anchor="start" dominant-baseline="text-after-edge" transform="translate(1482.7 640.7) rotate(0)">A18</text><text x="0" y="0" fill="#1f2937" font-family="Times New Roman" font-size="10" font-style="normal" font-weight="normal" text-decoration="none" text-anchor="end" dominant-baseline="central" transform="translate(1478.7 640.7) rotate(0)">DSI0_TXN1</text></g>
    <g data-record="2"><line x1="1480.7" y1="620.7" x2="1510.7" y2="620.7" stroke="#1f2937" stroke-width="1"/><text x="0" y="0" fill="#1f2937" font-family="Times New Roman" font-size="10" font-style="normal" font-weight="normal" text-decoration="none" text-anchor="start" dominant-baseline="text-after-edge" transform="translate(1482.7 620.7) rotate(0)">A21</text><text x="0" y="0" fill="#1f2937" font-family="Times New Roman" font-size="10" font-style="normal" font-weight="normal" text-decoration="none" text-anchor="end" dominant-baseline="central" transform="translate(1478.7 620.7) rotate(0)">DSI0_TXP2</text></g>
    <g data-record="2"><line x1="1480.7" y1="610.7" x2="1510.7" y2="610.7" stroke="#1f2937" stroke-width="1"/><text x="0" y="0" fill="#1f2937" font-family="Times New Roman" font-size="10" font-style="normal" font-weight="normal" text-decoration="none" text-anchor="start" dominant-baseline="text-after-edge" transform="translate(1482.7 610.7) rotate(0)">A20</text><text x="0" y="0" fill="#1f2937" font-family="Times New Roman" font-size="10" font-style="normal" font-weight="normal" text-decoration="none" text-anchor="end" dominant-baseline="central" transform="translate(1478.7 610.7) rotate(0)">DSI0_TXN2</text></g>
    <g data-record="2"><line x1="1480.7" y1="590.7" x2="1510.7" y2="590.7" stroke="#1f2937" stroke-width="1"/><text x="0" y="0" fill="#1f2937" font-family="Times New Roman" font-size="10" font-style="normal" font-weight="normal" text-decoration="none" text-anchor="start" dominant-baseline="text-after-edge" transform="translate(1482.7 590.7) rotate(0)">B21</text><text x="0" y="0" fill="#1f2937" font-family="Times New Roman" font-size="10" font-style="normal" font-weight="normal" text-decoration="none" text-anchor="end" dominant-baseline="central" transform="translate(1478.7 590.7) rotate(0)">DSI0_TXP3</text></g>
    <g data-record="2"><line x1="1480.7" y1="580.7" x2="1510.7" y2="580.7" stroke="#1f2937" stroke-width="1"/><text x="0" y="0" fill="#1f2937" font-family="Times New Roman" font-size="10" font-style="normal" font-weight="normal" text-decoration="none" text-anchor="start" dominant-baseline="text-after-edge" transform="translate(1482.7 580.7) rotate(0)">B22</text><text x="0" y="0" fill="#1f2937" font-family="Times New Roman" font-size="10" font-style="normal" font-weight="normal" text-decoration="none" text-anchor="end" dominant-baseline="central" transform="translate(1478.7 580.7) rotate(0)">DSI0_TXN3</text></g>
    <g data-record="2"><line x1="1480.7" y1="560.7" x2="1510.7" y2="560.7" stroke="#1f2937" stroke-width="1"/><text x="0" y="0" fill="#1f2937" font-family="Times New Roman" font-size="10" font-style="normal" font-weight="normal" text-decoration="none" text-anchor="start" dominant-baseline="text-after-edge" transform="translate(1482.7 560.7) rotate(0)">D17</text><text x="0" y="0" fill="#1f2937" font-family="Times New Roman" font-size="10" font-style="normal" font-weight="normal" text-decoration="none" text-anchor="end" dominant-baseline="central" transform="translate(1478.7 560.7) rotate(0)">DSI0_TXRCALIB</text></g>
    <text data-record="41" x="0" y="0" fill="#000080" font-family="Times New Roman" font-size="10" font-style="normal" font-weight="normal" text-decoration="none" text-anchor="start" dominant-baseline="text-after-edge" transform="translate(1330.7 740.7) rotate(0)">XAM62L32AOGHAANB</text>
    <rect data-record="14" x="410.7" y="550.7" width="110" height="170" rx="0" fill="#ffffb0" stroke="#000bff" stroke-width="1"/>
    <g data-record="2"><line x1="520.7" y1="560.7" x2="550.7" y2="560.7" stroke="#1f2937" stroke-width="1"/><text x="0" y="0" fill="#1f2937" font-family="Times New Roman" font-size="10" font-style="normal" font-weight="normal" text-decoration="none" text-anchor="start" dominant-baseline="text-after-edge" transform="translate(522.7 560.7) rotate(0)">AB4</text><text x="0" y="0" fill="#1f2937" font-family="Times New Roman" font-size="10" font-style="normal" font-weight="normal" text-decoration="none" text-anchor="end" dominant-baseline="central" transform="translate(518.7 560.7) rotate(0)">USB0_DP</text></g>
    <g data-record="2"><line x1="520.7" y1="570.7" x2="550.7" y2="570.7" stroke="#1f2937" stroke-width="1"/><text x="0" y="0" fill="#1f2937" font-family="Times New Roman" font-size="10" font-style="normal" font-weight="normal" text-decoration="none" text-anchor="start" dominant-baseline="text-after-edge" transform="translate(522.7 570.7) rotate(0)">AC4</text><text x="0" y="0" fill="#1f2937" font-family="Times New Roman" font-size="10" font-style="normal" font-weight="normal" text-decoration="none" text-anchor="end" dominant-baseline="central" transform="translate(518.7 570.7) rotate(0)">USB0_DM</text></g>
    <g data-record="2"><line x1="520.7" y1="590.7" x2="550.7" y2="590.7" stroke="#1f2937" stroke-width="1"/><text x="0" y="0" fill="#1f2937" font-family="Times New Roman" font-size="10" font-style="normal" font-weight="normal" text-decoration="none" text-anchor="start" dominant-baseline="text-after-edge" transform="translate(522.7 590.7) rotate(0)">AC3</text><text x="0" y="0" fill="#1f2937" font-family="Times New Roman" font-size="10" font-style="normal" font-weight="normal" text-decoration="none" text-anchor="end" dominant-baseline="central" transform="translate(518.7 590.7) rotate(0)">USB0_VBUS</text></g>
    <g data-record="2"><line x1="520.7" y1="610.7" x2="550.7" y2="610.7" stroke="#1f2937" stroke-width="1"/><text x="0" y="0" fill="#1f2937" font-family="Times New Roman" font-size="10" font-style="normal" font-weight="normal" text-decoration="none" text-anchor="start" dominant-baseline="text-after-edge" transform="translate(522.7 610.7) rotate(0)">AB3</text><text x="0" y="0" fill="#1f2937" font-family="Times New Roman" font-size="10" font-style="normal" font-weight="normal" text-decoration="none" text-anchor="end" dominant-baseline="central" transform="translate(518.7 610.7) rotate(0)">USB0_RCALIB</text></g>
    <g data-record="2"><line x1="520.7" y1="630.7" x2="550.7" y2="630.7" stroke="#1f2937" stroke-width="1"/><text x="0" y="0" fill="#1f2937" font-family="Times New Roman" font-size="10" font-style="normal" font-weight="normal" text-decoration="none" text-anchor="start" dominant-baseline="text-after-edge" transform="translate(522.7 630.7) rotate(0)">AB5</text><text x="0" y="0" fill="#1f2937" font-family="Times New Roman" font-size="10" font-style="normal" font-weight="normal" text-decoration="none" text-anchor="end" dominant-baseline="central" transform="translate(518.7 630.7) rotate(0)">USB1_DP</text></g>
    <g data-record="2"><line x1="520.7" y1="640.7" x2="550.7" y2="640.7" stroke="#1f2937" stroke-width="1"/><text x="0" y="0" fill="#1f2937" font-family="Times New Roman" font-size="10" font-style="normal" font-weight="normal" text-decoration="none" text-anchor="start" dominant-baseline="text-after-edge" transform="translate(522.7 640.7) rotate(0)">AC5</text><text x="0" y="0" fill="#1f2937" font-family="Times New Roman" font-size="10" font-style="normal" font-weight="normal" text-decoration="none" text-anchor="end" dominant-baseline="central" transform="translate(518.7 640.7) rotate(0)">USB1_DM</text></g>
    <g data-record="2"><line x1="520.7" y1="660.7" x2="550.7" y2="660.7" stroke="#1f2937" stroke-width="1"/><text x="0" y="0" fill="#1f2937" font-family="Times New Roman" font-size="10" font-style="normal" font-weight="normal" text-decoration="none" text-anchor="start" dominant-baseline="text-after-edge" transform="translate(522.7 660.7) rotate(0)">AB6</text><text x="0" y="0" fill="#1f2937" font-family="Times New Roman" font-size="10" font-style="normal" font-weight="normal" text-decoration="none" text-anchor="end" dominant-baseline="central" transform="translate(518.7 660.7) rotate(0)">USB1_VBUS</text></g>
    <g data-record="2"><line x1="520.7" y1="680.7" x2="550.7" y2="680.7" stroke="#1f2937" stroke-width="1"/><text x="0" y="0" fill="#1f2937" font-family="Times New Roman" font-size="10" font-style="normal" font-weight="normal" text-decoration="none" text-anchor="start" dominant-baseline="text-after-edge" transform="translate(522.7 680.7) rotate(0)">AC6</text><text x="0" y="0" fill="#1f2937" font-family="Times New Roman" font-size="10" font-style="normal" font-weight="normal" text-decoration="none" text-anchor="end" dominant-baseline="central" transform="translate(518.7 680.7) rotate(0)">USB1_RCALIB</text></g>
    <g data-record="2"><line x1="520.7" y1="700.7" x2="550.7" y2="700.7" stroke="#1f2937" stroke-width="1"/><text x="0" y="0" fill="#1f2937" font-family="Times New Roman" font-size="10" font-style="normal" font-weight="normal" text-decoration="none" text-anchor="start" dominant-baseline="text-after-edge" transform="translate(522.7 700.7) rotate(0)">C6</text><text x="0" y="0" fill="#1f2937" font-family="Times New Roman" font-size="10" font-style="normal" font-weight="normal" text-decoration="none" text-anchor="end" dominant-baseline="central" transform="translate(518.7 700.7) rotate(0)">USB0_DRVVBUS</text></g>
    <g data-record="2"><line x1="520.7" y1="710.7" x2="550.7" y2="710.7" stroke="#1f2937" stroke-width="1"/><text x="0" y="0" fill="#1f2937" font-family="Times New Roman" font-size="10" font-style="normal" font-weight="normal" text-decoration="none" text-anchor="start" dominant-baseline="text-after-edge" transform="translate(522.7 710.7) rotate(0)">A5</text><text x="0" y="0" fill="#1f2937" font-family="Times New Roman" font-size="10" font-style="normal" font-weight="normal" text-decoration="none" text-anchor="end" dominant-baseline="central" transform="translate(518.7 710.7) rotate(0)">USB1_DRVVBUS</text></g>
    <text data-record="41" x="0" y="0" fill="#000080" font-family="Times New Roman" font-size="10" font-style="normal" font-weight="normal" text-decoration="none" text-anchor="start" dominant-baseline="text-after-edge" transform="translate(377.7 734.7) rotate(0)">XAM62L32AOGHAANB</text>
    <g data-record="2"><line x1="1700.7" y1="560.7" x2="1710.7" y2="560.7" stroke="#1f2937" stroke-width="1"/></g>
    <g data-record="2"><line x1="1670.7" y1="560.7" x2="1660.7" y2="560.7" stroke="#1f2937" stroke-width="1"/></g>
    <line data-record="13" x1="1700.7" y1="560.7" x2="1697.7" y2="563.7" stroke="#000bff" stroke-width="1"/>
    <line data-record="13" x1="1697.7" y1="563.7" x2="1691.7" y2="557.7" stroke="#000bff" stroke-width="1"/>
    <line data-record="13" x1="1691.7" y1="557.7" x2="1685.7" y2="563.7" stroke="#000bff" stroke-width="1"/>
    <line data-record="13" x1="1685.7" y1="563.7" x2="1679.7" y2="557.7" stroke="#000bff" stroke-width="1"/>
    <line data-record="13" x1="1679.7" y1="557.7" x2="1673.7" y2="563.7" stroke="#000bff" stroke-width="1"/>
    <line data-record="13" x1="1673.7" y1="563.7" x2="1670.7" y2="560.7" stroke="#000bff" stroke-width="1"/>
    <text data-record="34" x="0" y="0" fill="#000080" font-family="Times New Roman" font-size="10" font-style="normal" font-weight="normal" text-decoration="none" text-anchor="start" dominant-baseline="text-after-edge" transform="translate(1650.7 560.7) rotate(0)">R492</text>
    <text data-record="41" x="0" y="0" fill="#000080" font-family="Times New Roman" font-size="10" font-style="normal" font-weight="normal" text-decoration="none" text-anchor="start" dominant-baseline="text-after-edge" transform="translate(1700.7 560.7) rotate(0)">499E_1%</text>
    <g data-record="2"><line x1="770.7" y1="610.7" x2="760.7" y2="610.7" stroke="#1f2937" stroke-width="1"/></g>
    <g data-record="2"><line x1="800.7" y1="610.7" x2="810.7" y2="610.7" stroke="#1f2937" stroke-width="1"/></g>
    <line data-record="13" x1="770.7" y1="610.7" x2="773.7" y2="607.7" stroke="#000bff" stroke-width="1"/>
    <line data-record="13" x1="773.7" y1="607.7" x2="779.7" y2="613.7" stroke="#000bff" stroke-width="1"/>
    <line data-record="13" x1="779.7" y1="613.7" x2="785.7" y2="607.7" stroke="#000bff" stroke-width="1"/>
    <line data-record="13" x1="785.7" y1="607.7" x2="791.7" y2="613.7" stroke="#000bff" stroke-width="1"/>
    <line data-record="13" x1="791.7" y1="613.7" x2="797.7" y2="607.7" stroke="#000bff" stroke-width="1"/>
    <line data-record="13" x1="797.7" y1="607.7" x2="800.7" y2="610.7" stroke="#000bff" stroke-width="1"/>
    <text data-record="34" x="0" y="0" fill="#000080" font-family="Times New Roman" font-size="10" font-style="normal" font-weight="normal" text-decoration="none" text-anchor="start" dominant-baseline="text-after-edge" transform="translate(750.7 610.7) rotate(0)">R118</text>
    <text data-record="41" x="0" y="0" fill="#000080" font-family="Times New Roman" font-size="10" font-style="normal" font-weight="normal" text-decoration="none" text-anchor="start" dominant-baseline="text-after-edge" transform="translate(800.7 610.7) rotate(0)">499E_1%</text>
    <g data-record="2"><line x1="580.7" y1="710.7" x2="570.7" y2="710.7" stroke="#1f2937" stroke-width="1"/></g>
    <g data-record="2"><line x1="610.7" y1="710.7" x2="620.7" y2="710.7" stroke="#1f2937" stroke-width="1"/></g>
    <line data-record="13" x1="580.7" y1="710.7" x2="583.7" y2="707.7" stroke="#000bff" stroke-width="1"/>
    <line data-record="13" x1="583.7" y1="707.7" x2="589.7" y2="713.7" stroke="#000bff" stroke-width="1"/>
    <line data-record="13" x1="589.7" y1="713.7" x2="595.7" y2="707.7" stroke="#000bff" stroke-width="1"/>
    <line data-record="13" x1="595.7" y1="707.7" x2="601.7" y2="713.7" stroke="#000bff" stroke-width="1"/>
    <line data-record="13" x1="601.7" y1="713.7" x2="607.7" y2="707.7" stroke="#000bff" stroke-width="1"/>
    <line data-record="13" x1="607.7" y1="707.7" x2="610.7" y2="710.7" stroke="#000bff" stroke-width="1"/>
    <text data-record="34" x="0" y="0" fill="#000080" font-family="Times New Roman" font-size="10" font-style="normal" font-weight="normal" text-decoration="none" text-anchor="start" dominant-baseline="text-after-edge" transform="translate(560.7 710.7) rotate(0)">R196</text>
    <text data-record="41" x="0" y="0" fill="#000080" font-family="Times New Roman" font-size="10" font-style="normal" font-weight="normal" text-decoration="none" text-anchor="start" dominant-baseline="text-after-edge" transform="translate(610.7 710.7) rotate(0)">0E</text>
    <g data-record="17"><path d="M 1890.7 570.7 L 1890.7 574.7 M 1897.7 574.7 L 1883.7 574.7 L 1890.7 582.7 Z" fill="none" stroke="#800000" stroke-width="1"/><text x="1890.7" y="586.7" text-anchor="middle" dominant-baseline="hanging" fill="#800000" font-family="Times New Roman" font-size="10" font-style="normal" font-weight="normal" text-decoration="none">DGND</text></g>
    <g data-record="17"><path d="M 980.7 620.7 L 980.7 624.7 M 987.7 624.7 L 973.7 624.7 L 980.7 632.7 Z" fill="none" stroke="#800000" stroke-width="1"/><text x="980.7" y="636.7" text-anchor="middle" dominant-baseline="hanging" fill="#800000" font-family="Times New Roman" font-size="10" font-style="normal" font-weight="normal" text-decoration="none">DGND</text></g>
    <g data-record="17"><path d="M 960.7 690.7 L 960.7 694.7 M 967.7 694.7 L 953.7 694.7 L 960.7 702.7 Z" fill="none" stroke="#800000" stroke-width="1"/><text x="960.7" y="706.7" text-anchor="middle" dominant-baseline="hanging" fill="#800000" font-family="Times New Roman" font-size="10" font-style="normal" font-weight="normal" text-decoration="none">DGND</text></g>
    <g data-record="18"><path d="M 1710.7 575.7 H 1750.7 L 1760.7 580.7 L 1750.7 585.7 H 1710.7 Z" fill="#ffff80" stroke="#ff0000" stroke-width="1"/><text x="1735.7" y="580.7" text-anchor="middle" dominant-baseline="central" fill="#800000" font-family="Times New Roman" font-size="8" font-style="normal" font-weight="normal" text-decoration="none">DSI_TX3_N</text></g>
    <g data-record="18"><path d="M 1710.7 585.7 H 1750.7 L 1760.7 590.7 L 1750.7 595.7 H 1710.7 Z" fill="#ffff80" stroke="#ff0000" stroke-width="1"/><text x="1735.7" y="590.7" text-anchor="middle" dominant-baseline="central" fill="#800000" font-family="Times New Roman" font-size="8" font-style="normal" font-weight="normal" text-decoration="none">DSI_TX3_P</text></g>
    <g data-record="18"><path d="M 1710.7 605.7 H 1750.7 L 1760.7 610.7 L 1750.7 615.7 H 1710.7 Z" fill="#ffff80" stroke="#ff0000" stroke-width="1"/><text x="1735.7" y="610.7" text-anchor="middle" dominant-baseline="central" fill="#800000" font-family="Times New Roman" font-size="8" font-style="normal" font-weight="normal" text-decoration="none">DSI_TX2_N</text></g>
    <g data-record="18"><path d="M 1710.7 615.7 H 1750.7 L 1760.7 620.7 L 1750.7 625.7 H 1710.7 Z" fill="#ffff80" stroke="#ff0000" stroke-width="1"/><text x="1735.7" y="620.7" text-anchor="middle" dominant-baseline="central" fill="#800000" font-family="Times New Roman" font-size="8" font-style="normal" font-weight="normal" text-decoration="none">DSI_TX2_P</text></g>
    <g data-record="18"><path d="M 1710.7 635.7 H 1750.7 L 1760.7 640.7 L 1750.7 645.7 H 1710.7 Z" fill="#ffff80" stroke="#ff0000" stroke-width="1"/><text x="1735.7" y="640.7" text-anchor="middle" dominant-baseline="central" fill="#800000" font-family="Times New Roman" font-size="8" font-style="normal" font-weight="normal" text-decoration="none">DSI_TX1_N</text></g>
    <g data-record="18"><path d="M 1710.7 645.7 H 1750.7 L 1760.7 650.7 L 1750.7 655.7 H 1710.7 Z" fill="#ffff80" stroke="#ff0000" stroke-width="1"/><text x="1735.7" y="650.7" text-anchor="middle" dominant-baseline="central" fill="#800000" font-family="Times New Roman" font-size="8" font-style="normal" font-weight="normal" text-decoration="none">DSI_TX1_P</text></g>
    <g data-record="18"><path d="M 1710.7 665.7 H 1750.7 L 1760.7 670.7 L 1750.7 675.7 H 1710.7 Z" fill="#ffff80" stroke="#ff0000" stroke-width="1"/><text x="1735.7" y="670.7" text-anchor="middle" dominant-baseline="central" fill="#800000" font-family="Times New Roman" font-size="8" font-style="normal" font-weight="normal" text-decoration="none">DSI_TX0_N</text></g>
    <g data-record="18"><path d="M 1710.7 675.7 H 1750.7 L 1760.7 680.7 L 1750.7 685.7 H 1710.7 Z" fill="#ffff80" stroke="#ff0000" stroke-width="1"/><text x="1735.7" y="680.7" text-anchor="middle" dominant-baseline="central" fill="#800000" font-family="Times New Roman" font-size="8" font-style="normal" font-weight="normal" text-decoration="none">DSI_TX0_P</text></g>
    <g data-record="18"><path d="M 1710.7 695.7 H 1760.7 L 1770.7 700.7 L 1760.7 705.7 H 1710.7 Z" fill="#ffff80" stroke="#ff0000" stroke-width="1"/><text x="1740.7" y="700.7" text-anchor="middle" dominant-baseline="central" fill="#800000" font-family="Times New Roman" font-size="8" font-style="normal" font-weight="normal" text-decoration="none">DSI_TXCLK_N</text></g>
    <g data-record="18"><path d="M 1710.7 705.7 H 1760.7 L 1770.7 710.7 L 1760.7 715.7 H 1710.7 Z" fill="#ffff80" stroke="#ff0000" stroke-width="1"/><text x="1740.7" y="710.7" text-anchor="middle" dominant-baseline="central" fill="#800000" font-family="Times New Roman" font-size="8" font-style="normal" font-weight="normal" text-decoration="none">DSI_TXCLK_P</text></g>
    <g data-record="18"><path d="M 780.7 555.7 H 840.7 V 565.7 H 780.7 Z" fill="#ffff80" stroke="#ff0000" stroke-width="1"/><text x="810.7" y="560.7" text-anchor="middle" dominant-baseline="central" fill="#800000" font-family="Times New Roman" font-size="8" font-style="normal" font-weight="normal" text-decoration="none">SoC_USB0_DP</text></g>
    <g data-record="18"><path d="M 780.7 565.7 H 840.7 V 575.7 H 780.7 Z" fill="#ffff80" stroke="#ff0000" stroke-width="1"/><text x="810.7" y="570.7" text-anchor="middle" dominant-baseline="central" fill="#800000" font-family="Times New Roman" font-size="8" font-style="normal" font-weight="normal" text-decoration="none">SoC_USB0_DM</text></g>
    <g data-record="18"><path d="M 670.7 590.7 L 680.7 585.7 H 740.7 V 595.7 H 680.7 Z" fill="#ffff80" stroke="#ff0000" stroke-width="1"/><text x="705.7" y="590.7" text-anchor="middle" dominant-baseline="central" fill="#800000" font-family="Times New Roman" font-size="8" font-style="normal" font-weight="normal" text-decoration="none">SoC_USB0_VBUS</text></g>
    <g data-record="18"><path d="M 790.7 625.7 H 850.7 V 635.7 H 790.7 Z" fill="#ffff80" stroke="#ff0000" stroke-width="1"/><text x="820.7" y="630.7" text-anchor="middle" dominant-baseline="central" fill="#800000" font-family="Times New Roman" font-size="8" font-style="normal" font-weight="normal" text-decoration="none">SoC_USB1_DP</text></g>
    <g data-record="18"><path d="M 790.7 635.7 H 850.7 V 645.7 H 790.7 Z" fill="#ffff80" stroke="#ff0000" stroke-width="1"/><text x="820.7" y="640.7" text-anchor="middle" dominant-baseline="central" fill="#800000" font-family="Times New Roman" font-size="8" font-style="normal" font-weight="normal" text-decoration="none">SoC_USB1_DM</text></g>
    <g data-record="18"><path d="M 670.7 660.7 L 680.7 655.7 H 740.7 V 665.7 H 680.7 Z" fill="#ffff80" stroke="#ff0000" stroke-width="1"/><text x="705.7" y="660.7" text-anchor="middle" dominant-baseline="central" fill="#800000" font-family="Times New Roman" font-size="8" font-style="normal" font-weight="normal" text-decoration="none">SoC_USB1_VBUS</text></g>
    <g data-record="18"><path d="M 770.7 695.7 H 844.7 L 854.7 700.7 L 844.7 705.7 H 770.7 Z" fill="#ffff80" stroke="#ff0000" stroke-width="1"/><text x="812.7" y="700.7" text-anchor="middle" dominant-baseline="central" fill="#800000" font-family="Times New Roman" font-size="8" font-style="normal" font-weight="normal" text-decoration="none">SoC_USB0_DRVVBUS</text></g>
    <g data-record="18"><path d="M 770.7 705.7 H 844.7 L 854.7 710.7 L 844.7 715.7 H 770.7 Z" fill="#ffff80" stroke="#ff0000" stroke-width="1"/><text x="812.7" y="710.7" text-anchor="middle" dominant-baseline="central" fill="#800000" font-family="Times New Roman" font-size="8" font-style="normal" font-weight="normal" text-decoration="none">SoC_USB1_DRVVBUS</text></g>
    <line data-record="13" x1="1683.7" y1="567.7" x2="1688.7" y2="561.7" stroke="#008200" stroke-width="1"/>
    <line data-record="13" x1="1700.7" y1="567.7" x2="1695.7" y2="561.7" stroke="#008200" stroke-width="1"/>
    <line data-record="13" x1="1673.7" y1="567.7" x2="1683.7" y2="567.7" stroke="#008200" stroke-width="1"/>
    <line data-record="13" x1="1710.7" y1="567.7" x2="1700.7" y2="567.7" stroke="#008200" stroke-width="1"/>
    <line data-record="13" x1="1683.7" y1="570.7" x2="1688.7" y2="576.7" stroke="#008200" stroke-width="1"/>
    <line data-record="13" x1="1698.7" y1="561.7" x2="1705.7" y2="561.7" stroke="#008200" stroke-width="1"/>
    <line data-record="13" x1="1700.7" y1="570.7" x2="1695.7" y2="576.7" stroke="#008200" stroke-width="1"/>
    <line data-record="13" x1="1673.7" y1="570.7" x2="1683.7" y2="570.7" stroke="#008200" stroke-width="1"/>
    <line data-record="13" x1="1669.7" y1="579.7" x2="1675.7" y2="570.7" stroke="#1f2937" stroke-width="1"/>
    <line data-record="13" x1="1710.7" y1="570.7" x2="1700.7" y2="570.7" stroke="#008200" stroke-width="1"/>
    <line data-record="13" x1="1688.7" y1="576.7" x2="1695.7" y2="576.7" stroke="#008200" stroke-width="1"/>
    <line data-record="13" x1="1683.7" y1="597.7" x2="1688.7" y2="591.7" stroke="#008200" stroke-width="1"/>
    <line data-record="13" x1="1700.7" y1="597.7" x2="1695.7" y2="591.7" stroke="#008200" stroke-width="1"/>
    <line data-record="13" x1="1673.7" y1="597.7" x2="1683.7" y2="597.7" stroke="#008200" stroke-width="1"/>
    <ellipse data-record="8" cx="1670.7" cy="584.7" rx="2" ry="7" fill="none" stroke="#0000ff" stroke-width="1"/>
    <line data-record="13" x1="1710.7" y1="597.7" x2="1700.7" y2="597.7" stroke="#008200" stroke-width="1"/>
    <line data-record="13" x1="1683.7" y1="600.7" x2="1688.7" y2="606.7" stroke="#008200" stroke-width="1"/>
    <line data-record="13" x1="1688.7" y1="591.7" x2="1695.7" y2="591.7" stroke="#008200" stroke-width="1"/>
    <line data-record="13" x1="1700.7" y1="600.7" x2="1695.7" y2="606.7" stroke="#008200" stroke-width="1"/>
    <line data-record="13" x1="1673.7" y1="600.7" x2="1683.7" y2="600.7" stroke="#008200" stroke-width="1"/>
    <line data-record="13" x1="1669.7" y1="609.7" x2="1675.7" y2="600.7" stroke="#1f2937" stroke-width="1"/>
    <line data-record="13" x1="1710.7" y1="600.7" x2="1700.7" y2="600.7" stroke="#008200" stroke-width="1"/>
    <line data-record="13" x1="1688.7" y1="606.7" x2="1695.7" y2="606.7" stroke="#008200" stroke-width="1"/>
    <line data-record="13" x1="1683.7" y1="627.7" x2="1688.7" y2="621.7" stroke="#008200" stroke-width="1"/>
    <line data-record="13" x1="1700.7" y1="627.7" x2="1695.7" y2="621.7" stroke="#008200" stroke-width="1"/>
    <line data-record="13" x1="1673.7" y1="627.7" x2="1683.7" y2="627.7" stroke="#008200" stroke-width="1"/>
    <ellipse data-record="8" cx="1670.7" cy="614.7" rx="2" ry="7" fill="none" stroke="#0000ff" stroke-width="1"/>
    <line data-record="13" x1="1710.7" y1="627.7" x2="1700.7" y2="627.7" stroke="#008200" stroke-width="1"/>
    <line data-record="13" x1="1683.7" y1="630.7" x2="1688.7" y2="636.7" stroke="#008200" stroke-width="1"/>
    <line data-record="13" x1="1688.7" y1="621.7" x2="1695.7" y2="621.7" stroke="#008200" stroke-width="1"/>
    <line data-record="13" x1="1700.7" y1="630.7" x2="1695.7" y2="636.7" stroke="#008200" stroke-width="1"/>
    <line data-record="13" x1="1673.7" y1="630.7" x2="1683.7" y2="630.7" stroke="#008200" stroke-width="1"/>
    <line data-record="13" x1="1669.7" y1="639.7" x2="1675.7" y2="630.7" stroke="#1f2937" stroke-width="1"/>
    <line data-record="13" x1="1710.7" y1="630.7" x2="1700.7" y2="630.7" stroke="#008200" stroke-width="1"/>
    <line data-record="13" x1="1688.7" y1="636.7" x2="1695.7" y2="636.7" stroke="#008200" stroke-width="1"/>
    <line data-record="13" x1="1683.7" y1="657.7" x2="1688.7" y2="651.7" stroke="#008200" stroke-width="1"/>
    <line data-record="13" x1="1700.7" y1="657.7" x2="1695.7" y2="651.7" stroke="#008200" stroke-width="1"/>
    <line data-record="13" x1="1673.7" y1="657.7" x2="1683.7" y2="657.7" stroke="#008200" stroke-width="1"/>
    <ellipse data-record="8" cx="1670.7" cy="644.7" rx="2" ry="7" fill="none" stroke="#0000ff" stroke-width="1"/>
    <line data-record="13" x1="1710.7" y1="657.7" x2="1700.7" y2="657.7" stroke="#008200" stroke-width="1"/>
    <line data-record="13" x1="1683.7" y1="660.7" x2="1688.7" y2="666.7" stroke="#008200" stroke-width="1"/>
    <line data-record="13" x1="1688.7" y1="651.7" x2="1695.7" y2="651.7" stroke="#008200" stroke-width="1"/>
    <line data-record="13" x1="1700.7" y1="660.7" x2="1695.7" y2="666.7" stroke="#008200" stroke-width="1"/>
    <line data-record="13" x1="1673.7" y1="660.7" x2="1683.7" y2="660.7" stroke="#008200" stroke-width="1"/>
    <line data-record="13" x1="1669.7" y1="669.7" x2="1675.7" y2="660.7" stroke="#1f2937" stroke-width="1"/>
    <line data-record="13" x1="1710.7" y1="660.7" x2="1700.7" y2="660.7" stroke="#008200" stroke-width="1"/>
    <line data-record="13" x1="1688.7" y1="666.7" x2="1695.7" y2="666.7" stroke="#008200" stroke-width="1"/>
    <line data-record="13" x1="1683.7" y1="687.7" x2="1688.7" y2="681.7" stroke="#008200" stroke-width="1"/>
    <line data-record="13" x1="1700.7" y1="687.7" x2="1695.7" y2="681.7" stroke="#008200" stroke-width="1"/>
    <line data-record="13" x1="1673.7" y1="687.7" x2="1683.7" y2="687.7" stroke="#008200" stroke-width="1"/>
    <ellipse data-record="8" cx="1670.7" cy="674.7" rx="2" ry="7" fill="none" stroke="#0000ff" stroke-width="1"/>
    <line data-record="13" x1="1710.7" y1="687.7" x2="1700.7" y2="687.7" stroke="#008200" stroke-width="1"/>
    <line data-record="13" x1="1683.7" y1="690.7" x2="1688.7" y2="696.7" stroke="#008200" stroke-width="1"/>
    <line data-record="13" x1="1688.7" y1="681.7" x2="1695.7" y2="681.7" stroke="#008200" stroke-width="1"/>
    <line data-record="13" x1="1700.7" y1="690.7" x2="1695.7" y2="696.7" stroke="#008200" stroke-width="1"/>
    <line data-record="13" x1="1673.7" y1="690.7" x2="1683.7" y2="690.7" stroke="#008200" stroke-width="1"/>
    <line data-record="13" x1="1669.7" y1="699.7" x2="1675.7" y2="690.7" stroke="#1f2937" stroke-width="1"/>
    <line data-record="13" x1="1710.7" y1="690.7" x2="1700.7" y2="690.7" stroke="#008200" stroke-width="1"/>
    <line data-record="13" x1="1688.7" y1="696.7" x2="1695.7" y2="696.7" stroke="#008200" stroke-width="1"/>
    <ellipse data-record="8" cx="1670.7" cy="704.7" rx="2" ry="7" fill="none" stroke="#0000ff" stroke-width="1"/>
    <line data-record="13" x1="713.7" y1="537.7" x2="718.7" y2="531.7" stroke="#008200" stroke-width="1"/>
    <line data-record="13" x1="730.7" y1="537.7" x2="725.7" y2="531.7" stroke="#008200" stroke-width="1"/>
    <line data-record="13" x1="703.7" y1="537.7" x2="713.7" y2="537.7" stroke="#008200" stroke-width="1"/>
    <line data-record="13" x1="740.7" y1="537.7" x2="730.7" y2="537.7" stroke="#008200" stroke-width="1"/>
    <line data-record="13" x1="713.7" y1="540.7" x2="718.7" y2="546.7" stroke="#008200" stroke-width="1"/>
    <line data-record="13" x1="718.7" y1="531.7" x2="725.7" y2="531.7" stroke="#008200" stroke-width="1"/>
    <line data-record="13" x1="730.7" y1="540.7" x2="725.7" y2="546.7" stroke="#008200" stroke-width="1"/>
    <line data-record="13" x1="703.7" y1="540.7" x2="713.7" y2="540.7" stroke="#008200" stroke-width="1"/>
    <line data-record="13" x1="699.7" y1="549.7" x2="705.7" y2="540.7" stroke="#1f2937" stroke-width="1"/>
    <line data-record="13" x1="740.7" y1="540.7" x2="730.7" y2="540.7" stroke="#008200" stroke-width="1"/>
    <line data-record="13" x1="718.7" y1="546.7" x2="725.7" y2="546.7" stroke="#008200" stroke-width="1"/>
    <ellipse data-record="8" cx="698.7" cy="562.7" rx="5" ry="15" fill="none" stroke="#0000ff" stroke-width="1"/>
    <line data-record="13" x1="740.7" y1="610.7" x2="730.7" y2="610.7" stroke="#008200" stroke-width="1"/>
    <ellipse data-record="8" cx="778.7" cy="636.7" rx="6" ry="15" fill="none" stroke="#0000ff" stroke-width="1"/>
    <line data-record="13" x1="794.7" y1="654.7" x2="799.7" y2="648.7" stroke="#008200" stroke-width="1"/>
    <line data-record="13" x1="811.7" y1="654.7" x2="806.7" y2="648.7" stroke="#008200" stroke-width="1"/>
    <line data-record="13" x1="785.7" y1="654.7" x2="794.7" y2="654.7" stroke="#008200" stroke-width="1"/>
    <line data-record="13" x1="779.7" y1="644.7" x2="785.7" y2="654.7" stroke="#1f2937" stroke-width="1"/>
    <line data-record="13" x1="821.7" y1="654.7" x2="811.7" y2="654.7" stroke="#008200" stroke-width="1"/>
    <line data-record="13" x1="794.7" y1="657.7" x2="799.7" y2="663.7" stroke="#008200" stroke-width="1"/>
    <line data-record="13" x1="799.7" y1="648.7" x2="806.7" y2="648.7" stroke="#008200" stroke-width="1"/>
    <line data-record="13" x1="811.7" y1="657.7" x2="806.7" y2="663.7" stroke="#008200" stroke-width="1"/>
    <line data-record="13" x1="784.7" y1="657.7" x2="794.7" y2="657.7" stroke="#008200" stroke-width="1"/>
    <line data-record="13" x1="821.7" y1="657.7" x2="811.7" y2="657.7" stroke="#008200" stroke-width="1"/>
    <line data-record="13" x1="799.7" y1="663.7" x2="806.7" y2="663.7" stroke="#008200" stroke-width="1"/>
    <text data-record="4" x="0" y="0" fill="#1f2937" font-family="Arial" font-size="11" font-style="normal" font-weight="normal" text-decoration="none" text-anchor="start" dominant-baseline="text-after-edge" transform="translate(1770.7 1551.7) rotate(0)">PROC181E1-1</text>
    <text data-record="4" x="0" y="0" fill="#0000ff" font-family="Calibri" font-size="40" font-style="normal" font-weight="bold" text-decoration="none" text-anchor="start" dominant-baseline="text-after-edge" transform="translate(1370.7 510.7) rotate(0)">SOC - DSI</text>
    <text data-record="4" x="0" y="0" fill="#1f2937" font-family="Courier New" font-size="7" font-style="normal" font-weight="normal" text-decoration="none" text-anchor="start" dominant-baseline="text-after-edge" transform="translate(1684.7 572.7) rotate(0)">100E</text>
    <text data-record="4" x="0" y="0" fill="#1f2937" font-family="Courier New" font-size="7" font-style="normal" font-weight="normal" text-decoration="none" text-anchor="start" dominant-baseline="text-after-edge" transform="translate(1684.7 602.7) rotate(0)">100E</text>
    <text data-record="4" x="0" y="0" fill="#1f2937" font-family="Courier New" font-size="7" font-style="normal" font-weight="normal" text-decoration="none" text-anchor="start" dominant-baseline="text-after-edge" transform="translate(1684.7 692.7) rotate(0)">100E</text>
    <text data-record="4" x="0" y="0" fill="#1f2937" font-family="Courier New" font-size="7" font-style="normal" font-weight="normal" text-decoration="none" text-anchor="start" dominant-baseline="text-after-edge" transform="translate(1684.7 632.7) rotate(0)">100E</text>
    <text data-record="4" x="0" y="0" fill="#1f2937" font-family="Courier New" font-size="7" font-style="normal" font-weight="normal" text-decoration="none" text-anchor="start" dominant-baseline="text-after-edge" transform="translate(1684.7 662.7) rotate(0)">100E</text>
    <text data-record="4" x="0" y="0" fill="#1f2937" font-family="Courier New" font-size="9" font-style="normal" font-weight="normal" text-decoration="none" text-anchor="start" dominant-baseline="text-after-edge" transform="translate(920.7 649.7) rotate(0)">To Type- A connector</text>
    <text data-record="4" x="0" y="0" fill="#1f2937" font-family="Courier New" font-size="7" font-style="normal" font-weight="normal" text-decoration="none" text-anchor="start" dominant-baseline="text-after-edge" transform="translate(714.7 542.7) rotate(0)">90E</text>
    <text data-record="4" x="0" y="0" fill="#1f2937" font-family="Courier New" font-size="9" font-style="normal" font-weight="normal" text-decoration="none" text-anchor="start" dominant-baseline="text-after-edge" transform="translate(910.7 569.7) rotate(0)">To Type- C connector</text>
    <text data-record="4" x="0" y="0" fill="#0000ff" font-family="Calibri" font-size="40" font-style="normal" font-weight="bold" text-decoration="none" text-anchor="start" dominant-baseline="text-after-edge" transform="translate(400.7 510.7) rotate(0)">SOC - USB</text>
    <text data-record="4" x="0" y="0" fill="#1f2937" font-family="Courier New" font-size="7" font-style="normal" font-weight="normal" text-decoration="none" text-anchor="start" dominant-baseline="text-after-edge" transform="translate(796.7 659.7) rotate(0)">90E</text>
    <polyline data-record="27" points="1890.7,570.7 1890.7,560.7 1710.7,560.7" fill="none" stroke="#800040" stroke-width="1"/>
    <polyline data-record="27" points="980.7,620.7 980.7,610.7 810.7,610.7" fill="none" stroke="#800040" stroke-width="1"/>
    <polyline data-record="27" points="960.7,690.7 960.7,680.7 810.7,680.7" fill="none" stroke="#800040" stroke-width="1"/>
    </g>
  </g>
</svg>